<?xml version="1.0" encoding="iso-8859-1"?>
<!-- Generator: Adobe Illustrator 17.1.0, SVG Export Plug-In . SVG Version: 6.00 Build 0)  -->
<!DOCTYPE svg PUBLIC "-//W3C//DTD SVG 1.1//EN" "http://www.w3.org/Graphics/SVG/1.1/DTD/svg11.dtd">
<svg version="1.1" id="Capa_1" xmlns="http://www.w3.org/2000/svg" xmlns:xlink="http://www.w3.org/1999/xlink" x="0px" y="0px"
	 viewBox="0 0 182.785 182.785" style="enable-background:new 0 0 182.785 182.785;" xml:space="preserve">
<path d="M30.835,0h59.198L59.548,28.713L30.835,0z M104.182,88.891L8.733,182.785h63.972l62.687-62.686L104.182,88.891z
	 M64.707,44.479c-0.149,0.149-0.307,0.286-0.465,0.42L27.694,79.323l32.146,32.146L173.155,0H111.91L64.815,44.359
	C64.778,44.398,64.746,44.44,64.707,44.479z M147.601,182.785l-26.841-26.841l-26.841,26.841H147.601z M151.302,125.403
	l-19.935,19.935l37.448,37.448h6.47c4.143,0,7.5-3.358,7.5-7.5V93.919L151.302,125.403z M11.258,74.198
	c0.109-0.124,0.215-0.251,0.334-0.369c0.231-0.231,0.477-0.438,0.729-0.632l36.303-34.193L9.621,0H7.5C3.357,0,0,3.358,0,7.5v77.302
	L11.258,74.198z M16.77,89.613L0,105.408v64.926l49.146-48.345L16.77,89.613z M182.785,72.705V11.568l-67.909,66.803l31.122,31.122
	L182.785,72.705z" fill="#f47d44"/>
</svg>
